<svg width="90" height="42" viewBox="0 0 90 42" fill="none" xmlns="http://www.w3.org/2000/svg">
<rect width="90" height="42" rx="21" fill="#E84C60"/>
<path d="M19 28C23.4183 28 27 24.4183 27 20C27 15.5817 23.4183 12 19 12C14.5817 12 11 15.5817 11 20C11 24.4183 14.5817 28 19 28Z" stroke="white" stroke-width="2" stroke-linecap="round" stroke-linejoin="round"/>
<path d="M28.9999 30L24.6499 25.65" stroke="white" stroke-width="2" stroke-linecap="round" stroke-linejoin="round"/>
<path d="M41.746 14.924V16.814H46.786C46.408 19.01 44.41 20.81 40.846 21.782L41.782 23.618C46.606 22.286 49.306 19.298 49.306 14.924H41.746ZM46.066 25.778H52.294V28.496H46.066V25.778ZM43.726 30.35H54.634V23.906H43.726V30.35ZM52.258 13.988V17.894H49.396V19.82H52.258V23.222H54.634V13.988H52.258ZM65.6846 21.386C63.4886 20.468 62.6066 18.65 62.6066 16.814V14.888H60.3206V16.814C60.3206 18.704 59.4206 20.756 57.0986 21.782L58.3586 23.636C59.8886 22.97 60.8966 21.8 61.5086 20.396C62.0846 21.62 63.0386 22.61 64.4246 23.186L65.6846 21.386ZM60.0506 26.642H69.0866V30.566H71.4626V24.77H60.0506V26.642ZM69.2126 13.97V18.002H67.9166V14.222H65.7026V23.942H67.9166V19.91H69.2126V24.032H71.4626V13.97H69.2126Z" fill="white"/>
</svg>
