<svg width="32" height="32" viewBox="0 0 32 32" fill="none" xmlns="http://www.w3.org/2000/svg">
<rect width="32" height="32" rx="16" fill="#828282"/>
<path d="M21.3333 22V20.6667C21.3333 19.9594 21.0523 19.2811 20.5522 18.781C20.0521 18.281 19.3739 18 18.6666 18H13.3333C12.626 18 11.9478 18.281 11.4477 18.781C10.9476 19.2811 10.6666 19.9594 10.6666 20.6667V22" stroke="white" stroke-width="2" stroke-linecap="round" stroke-linejoin="round"/>
<path d="M16 15.3333C17.4728 15.3333 18.6667 14.1394 18.6667 12.6667C18.6667 11.1939 17.4728 10 16 10C14.5273 10 13.3334 11.1939 13.3334 12.6667C13.3334 14.1394 14.5273 15.3333 16 15.3333Z" stroke="white" stroke-width="2" stroke-linecap="round" stroke-linejoin="round"/>
</svg>
